<svg xmlns="http://www.w3.org/2000/svg" viewBox="0 0 32 24" width="32" height="24">
  <rect width="32" height="24" fill="#B22234"/>
  <rect y="1.85" width="32" height="1.85" fill="#FFFFFF"/>
  <rect y="5.54" width="32" height="1.85" fill="#FFFFFF"/>
  <rect y="9.23" width="32" height="1.85" fill="#FFFFFF"/>
  <rect y="12.92" width="32" height="1.85" fill="#FFFFFF"/>
  <rect y="16.62" width="32" height="1.85" fill="#FFFFFF"/>
  <rect y="20.31" width="32" height="1.85" fill="#FFFFFF"/>
  <rect width="13" height="13" fill="#3C3B6E"/>
  <g fill="#FFFFFF">
    <circle cx="1.2" cy="1.2" r="0.5"/><circle cx="3.5" cy="1.2" r="0.5"/><circle cx="5.8" cy="1.2" r="0.5"/><circle cx="8.1" cy="1.2" r="0.5"/><circle cx="10.4" cy="1.2" r="0.5"/>
    <circle cx="2.3" cy="2.6" r="0.5"/><circle cx="4.6" cy="2.6" r="0.5"/><circle cx="6.9" cy="2.6" r="0.5"/><circle cx="9.2" cy="2.6" r="0.5"/>
    <circle cx="1.2" cy="4.0" r="0.5"/><circle cx="3.5" cy="4.0" r="0.5"/><circle cx="5.8" cy="4.0" r="0.5"/><circle cx="8.1" cy="4.0" r="0.5"/><circle cx="10.4" cy="4.0" r="0.5"/>
    <circle cx="2.3" cy="5.4" r="0.5"/><circle cx="4.6" cy="5.4" r="0.5"/><circle cx="6.9" cy="5.4" r="0.5"/><circle cx="9.2" cy="5.4" r="0.5"/>
    <circle cx="1.2" cy="6.8" r="0.5"/><circle cx="3.5" cy="6.8" r="0.5"/><circle cx="5.8" cy="6.8" r="0.5"/><circle cx="8.1" cy="6.8" r="0.5"/><circle cx="10.4" cy="6.8" r="0.5"/>
    <circle cx="2.3" cy="8.2" r="0.5"/><circle cx="4.6" cy="8.2" r="0.5"/><circle cx="6.9" cy="8.2" r="0.5"/><circle cx="9.2" cy="8.2" r="0.5"/>
    <circle cx="1.2" cy="9.6" r="0.5"/><circle cx="3.5" cy="9.6" r="0.5"/><circle cx="5.8" cy="9.6" r="0.5"/><circle cx="8.1" cy="9.6" r="0.5"/><circle cx="10.4" cy="9.6" r="0.5"/>
    <circle cx="2.3" cy="11.0" r="0.5"/><circle cx="4.6" cy="11.0" r="0.5"/><circle cx="6.9" cy="11.0" r="0.5"/><circle cx="9.2" cy="11.0" r="0.5"/>
    <circle cx="1.2" cy="12.4" r="0.5"/><circle cx="3.5" cy="12.4" r="0.5"/><circle cx="5.8" cy="12.4" r="0.5"/><circle cx="8.1" cy="12.4" r="0.5"/><circle cx="10.4" cy="12.4" r="0.5"/>
  </g>
</svg>
